<svg xmlns="http://www.w3.org/2000/svg" xmlns:svg="http://www.w3.org/2000/svg" id="Capa_1" width="512" height="512" x="0" style="enable-background:new 0 0 438.533 438.533" y="0" version="1.1" viewBox="0 0 438.533 438.533" xml:space="preserve"><metadata id="metadata1140"/><g style="opacity:.386022" id="g1133" transform="matrix(0.71576928,0,0,1.326453,62.244639,-73.311906)"><g id="g1131"><g id="g1129"><path id="path1127" fill="#fff" d="M 420.265,182.72 H 18.274 c -4.952,0 -9.235,1.809 -12.851,5.426 C 1.807,191.761 0,196.044 0,200.992 v 36.547 c 0,4.948 1.807,9.236 5.424,12.847 3.619,3.614 7.902,5.428 12.851,5.428 h 401.991 c 4.948,0 9.229,-1.813 12.847,-5.428 3.614,-3.61 5.421,-7.898 5.421,-12.847 v -36.547 c 0,-4.948 -1.807,-9.231 -5.421,-12.847 -3.618,-3.617 -7.896,-5.425 -12.848,-5.425 z" class="active-path" data-old_color="#000000" data-original="#000000"/></g></g></g><circle id="path1142" cx="80.496" cy="217.464" r="48.437" style="fill:#fff;fill-opacity:1;fill-rule:evenodd;stroke-width:1.03634"/><circle style="fill:#fff;fill-opacity:1;fill-rule:evenodd;stroke-width:1.03634" id="path1142-0" cx="358.372" cy="215.232" r="48.437"/><circle id="path1142-0-1" cx="216.848" cy="358.035" r="48.437" style="fill:#fff;fill-opacity:1;fill-rule:evenodd;stroke-width:1.03634"/><circle style="fill:#fff;fill-opacity:1;fill-rule:evenodd;stroke-width:1.03634" id="path1142-0-1-6" cx="216.848" cy="82.591" r="48.437"/><path style="opacity:.386022;stroke-width:.945861" id="path1125" fill="#fff" d="m 175.06124,79.297506 c -4.75732,2.460297 -7.13664,5.372247 -7.13664,8.738576 V 361.47166 c 0,3.36837 2.37932,6.28168 7.13664,8.74129 4.75468,2.45962 10.38797,3.68874 16.89459,3.68874 h 48.06903 c 6.50927,0 12.1386,-1.22912 16.89724,-3.68941 4.75863,-2.46167 7.134,-5.37497 7.134,-8.74131 V 88.035395 c 0,-3.365642 -2.37669,-6.277592 -7.134,-8.738568 -4.75733,-2.458257 -10.38797,-3.687384 -16.89724,-3.687384 h -48.06903 c -6.50662,5.85e-4 -12.13991,1.227773 -16.89459,3.688063 z" class="active-path" data-old_color="#000000" data-original="#000000"/><path style="fill:#fff;fill-opacity:1;fill-rule:evenodd;stroke-width:1.58212" id="path1142-0-1-6-9" d="m 263.98889,243.61029 c 0,40.91196 -0.56579,58.35427 -41.33334,58.35427 -40.76754,0 -30.7113,-54.69793 -106.29901,-58.35427 -40.864179,-1.97669 33.04862,-74.07766 73.81617,-74.07766 40.76755,0 73.81618,33.1657 73.81618,74.07766"/></svg>