<svg xmlns="http://www.w3.org/2000/svg" xmlns:svg="http://www.w3.org/2000/svg" id="Capa_1" width="512" height="512" x="0" style="enable-background:new 0 0 438.533 438.533" y="0" version="1.1" viewBox="0 0 438.533 438.533" xml:space="preserve"><metadata id="metadata1140"/><g style="opacity:.38602217" id="g1133" transform="scale(0.70642786,1)"><g id="g1131"><g id="g1129" style="fill:#fff;fill-opacity:1"><path id="path1127" d="M 590.5612,182.72 H 25.678834 c -6.958607,0 -12.977128,1.809 -18.0583722,5.426 C 2.5392171,191.761 0,196.044 0,200.992 v 36.547 c 0,4.948 2.5392171,9.236 7.621867,12.847 5.08546,3.614 11.103981,5.428 18.058372,5.428 H 590.5626 c 6.95299,0 12.9687,-1.813 18.05275,-5.428 5.07844,-3.61 7.61765,-7.898 7.61765,-12.847 v -36.547 c 0,-4.948 -2.53921,-9.231 -7.61765,-12.847 -5.08405,-3.617 -11.09555,-5.425 -18.05415,-5.425 z M 608.61395,41.968 C 603.5313,38.351 597.51559,36.542 590.5612,36.542 H 25.678834 c -6.958607,0 -12.977128,1.809 -18.0583722,5.426 C 2.5392171,45.583 0,49.866 0,54.813 V 91.36 c 0,4.949 2.5392171,9.229 7.621867,12.847 5.08546,3.618 11.103981,5.424 18.058372,5.424 H 590.5626 c 6.95299,0 12.9687,-1.807 18.05275,-5.424 5.07844,-3.617 7.61765,-7.898 7.61765,-12.847 V 54.813 c -10e-4,-4.947 -2.5364,-9.23 -7.61905,-12.845 z" style="stroke-width:1.18542;fill:#fff;fill-opacity:1"/></g></g></g><circle id="path1142" cx="218.085" cy="360.403" r="48.437" style="fill:#fff;fill-opacity:1;fill-rule:evenodd;stroke-width:1.03634"/><circle style="fill:#fff;fill-rule:evenodd;stroke-width:1.03634;fill-opacity:1" id="path1142-0" cx="389.957" cy="354.731" r="48.437"/><circle id="path1142-0-1" cx="46.899" cy="364.289" r="48.437" style="fill:#fff;fill-opacity:1;fill-rule:evenodd;stroke-width:1.03634"/></svg>